<mxfile host="app.diagrams.net" modified="2023-03-01T09:51:09.552Z" agent="5.0 (Macintosh)" etag="VC-lcyScEIX-snRm6rSk" version="20.8.23" type="github">
  <diagram id="kgpKYQtTHZ0yAKxKKP6v" name="Page-1">
    <mxGraphModel dx="1845" dy="606" grid="1" gridSize="10" guides="1" tooltips="1" connect="1" arrows="1" fold="1" page="1" pageScale="1" pageWidth="850" pageHeight="1100" math="0" shadow="0">
      <root>
        <mxCell id="0" />
        <mxCell id="1" parent="0" />
        <mxCell id="cu6VCZz03mRNxp5ROV86-1" value="&lt;div&gt;CF&lt;/div&gt;&lt;div&gt;&lt;br&gt;&lt;/div&gt;" style="shape=umlActor;verticalLabelPosition=bottom;verticalAlign=top;html=1;outlineConnect=0;" vertex="1" parent="1">
          <mxGeometry x="100" y="520" width="20" height="40" as="geometry" />
        </mxCell>
        <mxCell id="cu6VCZz03mRNxp5ROV86-4" value="Front" style="shape=umlLifeline;perimeter=lifelinePerimeter;whiteSpace=wrap;html=1;container=1;collapsible=0;recursiveResize=0;outlineConnect=0;" vertex="1" parent="1">
          <mxGeometry x="60" y="210" width="100" height="300" as="geometry" />
        </mxCell>
        <mxCell id="cu6VCZz03mRNxp5ROV86-5" value="SFCC" style="shape=umlLifeline;perimeter=lifelinePerimeter;whiteSpace=wrap;html=1;container=1;collapsible=0;recursiveResize=0;outlineConnect=0;lifelineDashed=0;" vertex="1" parent="1">
          <mxGeometry x="302" y="210" width="100" height="300" as="geometry" />
        </mxCell>
        <mxCell id="cu6VCZz03mRNxp5ROV86-7" value="" style="html=1;points=[];perimeter=orthogonalPerimeter;outlineConnect=0;targetShapes=umlLifeline;portConstraint=eastwest;newEdgeStyle={&quot;edgeStyle&quot;:&quot;elbowEdgeStyle&quot;,&quot;elbow&quot;:&quot;vertical&quot;,&quot;curved&quot;:0,&quot;rounded&quot;:0};" vertex="1" parent="cu6VCZz03mRNxp5ROV86-5">
          <mxGeometry x="45" y="140" width="10" height="40" as="geometry" />
        </mxCell>
        <mxCell id="cu6VCZz03mRNxp5ROV86-8" value="&lt;div&gt;patch customer&amp;nbsp; session/profile&lt;/div&gt;&lt;div&gt;with &quot;&lt;b&gt;natg_selectedCnMC&lt;/b&gt;&quot;&lt;/div&gt;&amp;nbsp;information from CN profile" style="html=1;align=left;spacingLeft=2;endArrow=block;rounded=0;edgeStyle=orthogonalEdgeStyle;curved=0;rounded=0;" edge="1" target="cu6VCZz03mRNxp5ROV86-7" parent="cu6VCZz03mRNxp5ROV86-5">
          <mxGeometry x="-0.0028" relative="1" as="geometry">
            <mxPoint x="50" y="120" as="sourcePoint" />
            <Array as="points">
              <mxPoint x="50" y="104" />
              <mxPoint x="80" y="104" />
              <mxPoint x="80" y="150" />
            </Array>
            <mxPoint as="offset" />
          </mxGeometry>
        </mxCell>
        <mxCell id="cu6VCZz03mRNxp5ROV86-9" value="" style="html=1;points=[];perimeter=orthogonalPerimeter;outlineConnect=0;targetShapes=umlLifeline;portConstraint=eastwest;newEdgeStyle={&quot;edgeStyle&quot;:&quot;elbowEdgeStyle&quot;,&quot;elbow&quot;:&quot;vertical&quot;,&quot;curved&quot;:0,&quot;rounded&quot;:0};" vertex="1" parent="cu6VCZz03mRNxp5ROV86-5">
          <mxGeometry x="45" y="86" width="10" height="44" as="geometry" />
        </mxCell>
        <mxCell id="cu6VCZz03mRNxp5ROV86-15" value="" style="html=1;points=[];perimeter=orthogonalPerimeter;outlineConnect=0;targetShapes=umlLifeline;portConstraint=eastwest;newEdgeStyle={&quot;edgeStyle&quot;:&quot;elbowEdgeStyle&quot;,&quot;elbow&quot;:&quot;vertical&quot;,&quot;curved&quot;:0,&quot;rounded&quot;:0};" vertex="1" parent="cu6VCZz03mRNxp5ROV86-5">
          <mxGeometry x="45" y="210" width="10" height="80" as="geometry" />
        </mxCell>
        <mxCell id="cu6VCZz03mRNxp5ROV86-10" value="select CN" style="html=1;verticalAlign=bottom;endArrow=block;edgeStyle=elbowEdgeStyle;elbow=vertical;curved=0;rounded=0;" edge="1" target="cu6VCZz03mRNxp5ROV86-9" parent="1" source="cu6VCZz03mRNxp5ROV86-4">
          <mxGeometry x="-0.0309" relative="1" as="geometry">
            <mxPoint x="277" y="296" as="sourcePoint" />
            <Array as="points">
              <mxPoint x="282" y="300" />
            </Array>
            <mxPoint as="offset" />
          </mxGeometry>
        </mxCell>
        <mxCell id="cu6VCZz03mRNxp5ROV86-16" value="search products" style="html=1;verticalAlign=bottom;endArrow=block;edgeStyle=elbowEdgeStyle;elbow=horizontal;curved=0;rounded=0;" edge="1" target="cu6VCZz03mRNxp5ROV86-15" parent="1" source="cu6VCZz03mRNxp5ROV86-4">
          <mxGeometry relative="1" as="geometry">
            <mxPoint x="277" y="420" as="sourcePoint" />
            <Array as="points">
              <mxPoint x="262" y="420" />
            </Array>
          </mxGeometry>
        </mxCell>
        <mxCell id="cu6VCZz03mRNxp5ROV86-17" value="&lt;div&gt;products priced based on campaign with&lt;/div&gt;&lt;div&gt;&quot;&lt;b&gt;natg_selectedCnMC&lt;/b&gt;&quot;&amp;nbsp; customer group&lt;br&gt;as qualifier&lt;br&gt;&lt;/div&gt;" style="html=1;verticalAlign=bottom;endArrow=open;dashed=1;endSize=8;edgeStyle=elbowEdgeStyle;elbow=vertical;curved=0;rounded=0;" edge="1" source="cu6VCZz03mRNxp5ROV86-15" parent="1" target="cu6VCZz03mRNxp5ROV86-4">
          <mxGeometry relative="1" as="geometry">
            <mxPoint x="277" y="495" as="targetPoint" />
            <Array as="points">
              <mxPoint x="312" y="500" />
              <mxPoint x="252" y="510" />
            </Array>
          </mxGeometry>
        </mxCell>
        <mxCell id="cu6VCZz03mRNxp5ROV86-86" value="&lt;b&gt;CN&lt;/b&gt; (Profile)" style="swimlane;fontStyle=0;childLayout=stackLayout;horizontal=1;startSize=30;horizontalStack=0;resizeParent=1;resizeParentMax=0;resizeLast=0;collapsible=0;marginBottom=0;whiteSpace=wrap;html=1;" vertex="1" parent="1">
          <mxGeometry x="-50" y="650" width="140" height="90" as="geometry" />
        </mxCell>
        <mxCell id="cu6VCZz03mRNxp5ROV86-87" value="natg_modeloComercial" style="text;strokeColor=default;fillColor=none;align=left;verticalAlign=middle;spacingLeft=4;spacingRight=4;overflow=hidden;points=[[0,0.5],[1,0.5]];portConstraint=eastwest;rotatable=0;whiteSpace=wrap;html=1;" vertex="1" parent="cu6VCZz03mRNxp5ROV86-86">
          <mxGeometry y="30" width="140" height="30" as="geometry" />
        </mxCell>
        <mxCell id="cu6VCZz03mRNxp5ROV86-88" value="natg_personId" style="text;strokeColor=default;fillColor=none;align=left;verticalAlign=middle;spacingLeft=4;spacingRight=4;overflow=hidden;points=[[0,0.5],[1,0.5]];portConstraint=eastwest;rotatable=0;whiteSpace=wrap;html=1;" vertex="1" parent="cu6VCZz03mRNxp5ROV86-86">
          <mxGeometry y="60" width="140" height="30" as="geometry" />
        </mxCell>
        <mxCell id="cu6VCZz03mRNxp5ROV86-92" value="&lt;b&gt;FONTE DADOS CN&lt;/b&gt;" style="swimlane;fontStyle=0;childLayout=stackLayout;horizontal=1;startSize=30;horizontalStack=0;resizeParent=1;resizeParentMax=0;resizeLast=0;collapsible=0;marginBottom=0;whiteSpace=wrap;html=1;" vertex="1" parent="1">
          <mxGeometry x="-260" y="650" width="140" height="120" as="geometry" />
        </mxCell>
        <mxCell id="cu6VCZz03mRNxp5ROV86-93" value="Modelo comercial" style="text;strokeColor=default;fillColor=none;align=left;verticalAlign=middle;spacingLeft=4;spacingRight=4;overflow=hidden;points=[[0,0.5],[1,0.5]];portConstraint=eastwest;rotatable=0;whiteSpace=wrap;html=1;" vertex="1" parent="cu6VCZz03mRNxp5ROV86-92">
          <mxGeometry y="30" width="140" height="30" as="geometry" />
        </mxCell>
        <mxCell id="cu6VCZz03mRNxp5ROV86-94" value="Inicio Ciclo" style="text;strokeColor=default;fillColor=none;align=left;verticalAlign=middle;spacingLeft=4;spacingRight=4;overflow=hidden;points=[[0,0.5],[1,0.5]];portConstraint=eastwest;rotatable=0;whiteSpace=wrap;html=1;" vertex="1" parent="cu6VCZz03mRNxp5ROV86-92">
          <mxGeometry y="60" width="140" height="30" as="geometry" />
        </mxCell>
        <mxCell id="cu6VCZz03mRNxp5ROV86-95" value="Fim Ciclo" style="text;strokeColor=none;fillColor=none;align=left;verticalAlign=middle;spacingLeft=4;spacingRight=4;overflow=hidden;points=[[0,0.5],[1,0.5]];portConstraint=eastwest;rotatable=0;whiteSpace=wrap;html=1;" vertex="1" parent="cu6VCZz03mRNxp5ROV86-92">
          <mxGeometry y="90" width="140" height="30" as="geometry" />
        </mxCell>
        <mxCell id="cu6VCZz03mRNxp5ROV86-96" value="&lt;b&gt;CAMPAIGN&lt;/b&gt;" style="swimlane;fontStyle=0;childLayout=stackLayout;horizontal=1;startSize=30;horizontalStack=0;resizeParent=1;resizeParentMax=0;resizeLast=0;collapsible=0;marginBottom=0;whiteSpace=wrap;html=1;" vertex="1" parent="1">
          <mxGeometry x="-260" y="820" width="140" height="150" as="geometry" />
        </mxCell>
        <mxCell id="cu6VCZz03mRNxp5ROV86-97" value="Customer Group" style="text;strokeColor=default;fillColor=none;align=left;verticalAlign=middle;spacingLeft=4;spacingRight=4;overflow=hidden;points=[[0,0.5],[1,0.5]];portConstraint=eastwest;rotatable=0;whiteSpace=wrap;html=1;" vertex="1" parent="cu6VCZz03mRNxp5ROV86-96">
          <mxGeometry y="30" width="140" height="30" as="geometry" />
        </mxCell>
        <mxCell id="cu6VCZz03mRNxp5ROV86-98" value="Promotion" style="text;strokeColor=default;fillColor=none;align=left;verticalAlign=middle;spacingLeft=4;spacingRight=4;overflow=hidden;points=[[0,0.5],[1,0.5]];portConstraint=eastwest;rotatable=0;whiteSpace=wrap;html=1;" vertex="1" parent="cu6VCZz03mRNxp5ROV86-96">
          <mxGeometry y="60" width="140" height="30" as="geometry" />
        </mxCell>
        <mxCell id="cu6VCZz03mRNxp5ROV86-99" value="Start Date" style="text;strokeColor=default;fillColor=none;align=left;verticalAlign=middle;spacingLeft=4;spacingRight=4;overflow=hidden;points=[[0,0.5],[1,0.5]];portConstraint=eastwest;rotatable=0;whiteSpace=wrap;html=1;" vertex="1" parent="cu6VCZz03mRNxp5ROV86-96">
          <mxGeometry y="90" width="140" height="30" as="geometry" />
        </mxCell>
        <mxCell id="cu6VCZz03mRNxp5ROV86-116" value="End Date" style="text;strokeColor=none;fillColor=none;align=left;verticalAlign=middle;spacingLeft=4;spacingRight=4;overflow=hidden;points=[[0,0.5],[1,0.5]];portConstraint=eastwest;rotatable=0;whiteSpace=wrap;html=1;" vertex="1" parent="cu6VCZz03mRNxp5ROV86-96">
          <mxGeometry y="120" width="140" height="30" as="geometry" />
        </mxCell>
        <mxCell id="cu6VCZz03mRNxp5ROV86-126" style="edgeStyle=orthogonalEdgeStyle;rounded=0;orthogonalLoop=1;jettySize=auto;html=1;entryX=1;entryY=0.5;entryDx=0;entryDy=0;startArrow=ERzeroToMany;startFill=0;endArrow=ERone;endFill=0;exitX=0.006;exitY=0.165;exitDx=0;exitDy=0;exitPerimeter=0;" edge="1" parent="1" source="cu6VCZz03mRNxp5ROV86-100" target="cu6VCZz03mRNxp5ROV86-97">
          <mxGeometry relative="1" as="geometry">
            <Array as="points">
              <mxPoint x="100" y="835" />
              <mxPoint x="100" y="865" />
            </Array>
          </mxGeometry>
        </mxCell>
        <mxCell id="cu6VCZz03mRNxp5ROV86-100" value="&lt;b&gt;CUSTOMER GROUP&lt;/b&gt;" style="swimlane;fontStyle=0;childLayout=stackLayout;horizontal=1;startSize=30;horizontalStack=0;resizeParent=1;resizeParentMax=0;resizeLast=0;collapsible=0;marginBottom=0;whiteSpace=wrap;html=1;" vertex="1" parent="1">
          <mxGeometry x="150" y="820" width="140" height="90" as="geometry" />
        </mxCell>
        <mxCell id="cu6VCZz03mRNxp5ROV86-101" value="&lt;div&gt;natg_selectedCnMC&lt;/div&gt;" style="text;strokeColor=default;fillColor=none;align=left;verticalAlign=middle;spacingLeft=4;spacingRight=4;overflow=hidden;points=[[0,0.5],[1,0.5]];portConstraint=eastwest;rotatable=0;whiteSpace=wrap;html=1;" vertex="1" parent="cu6VCZz03mRNxp5ROV86-100">
          <mxGeometry y="30" width="140" height="30" as="geometry" />
        </mxCell>
        <mxCell id="cu6VCZz03mRNxp5ROV86-139" value="session.custom.&lt;div&gt;natg_selectedCnMC&lt;/div&gt;" style="text;strokeColor=default;fillColor=none;align=left;verticalAlign=middle;spacingLeft=4;spacingRight=4;overflow=hidden;points=[[0,0.5],[1,0.5]];portConstraint=eastwest;rotatable=0;whiteSpace=wrap;html=1;" vertex="1" parent="cu6VCZz03mRNxp5ROV86-100">
          <mxGeometry y="60" width="140" height="30" as="geometry" />
        </mxCell>
        <mxCell id="cu6VCZz03mRNxp5ROV86-104" value="&lt;b&gt;PROMOTION&lt;/b&gt;" style="swimlane;fontStyle=0;childLayout=stackLayout;horizontal=1;startSize=30;horizontalStack=0;resizeParent=1;resizeParentMax=0;resizeLast=0;collapsible=0;marginBottom=0;whiteSpace=wrap;html=1;" vertex="1" parent="1">
          <mxGeometry x="-50" y="940" width="140" height="60" as="geometry" />
        </mxCell>
        <mxCell id="cu6VCZz03mRNxp5ROV86-105" value="pricebookPrice" style="text;strokeColor=default;fillColor=none;align=left;verticalAlign=middle;spacingLeft=4;spacingRight=4;overflow=hidden;points=[[0,0.5],[1,0.5]];portConstraint=eastwest;rotatable=0;whiteSpace=wrap;html=1;" vertex="1" parent="cu6VCZz03mRNxp5ROV86-104">
          <mxGeometry y="30" width="140" height="30" as="geometry" />
        </mxCell>
        <mxCell id="cu6VCZz03mRNxp5ROV86-108" value="&lt;b&gt;PRODUCT&lt;/b&gt;" style="swimlane;fontStyle=0;childLayout=stackLayout;horizontal=1;startSize=30;horizontalStack=0;resizeParent=1;resizeParentMax=0;resizeLast=0;collapsible=0;marginBottom=0;whiteSpace=wrap;html=1;" vertex="1" parent="1">
          <mxGeometry x="360" y="940" width="140" height="60" as="geometry" />
        </mxCell>
        <mxCell id="cu6VCZz03mRNxp5ROV86-109" value="price" style="text;strokeColor=default;fillColor=none;align=left;verticalAlign=middle;spacingLeft=4;spacingRight=4;overflow=hidden;points=[[0,0.5],[1,0.5]];portConstraint=eastwest;rotatable=0;whiteSpace=wrap;html=1;" vertex="1" parent="cu6VCZz03mRNxp5ROV86-108">
          <mxGeometry y="30" width="140" height="30" as="geometry" />
        </mxCell>
        <mxCell id="cu6VCZz03mRNxp5ROV86-112" value="&lt;b&gt;PRICEBOOK&lt;/b&gt;" style="swimlane;fontStyle=0;childLayout=stackLayout;horizontal=1;startSize=30;horizontalStack=0;resizeParent=1;resizeParentMax=0;resizeLast=0;collapsible=0;marginBottom=0;whiteSpace=wrap;html=1;" vertex="1" parent="1">
          <mxGeometry x="150" y="940" width="140" height="90" as="geometry" />
        </mxCell>
        <mxCell id="cu6VCZz03mRNxp5ROV86-113" value="pricebookId" style="text;strokeColor=default;fillColor=none;align=left;verticalAlign=middle;spacingLeft=4;spacingRight=4;overflow=hidden;points=[[0,0.5],[1,0.5]];portConstraint=eastwest;rotatable=0;whiteSpace=wrap;html=1;" vertex="1" parent="cu6VCZz03mRNxp5ROV86-112">
          <mxGeometry y="30" width="140" height="30" as="geometry" />
        </mxCell>
        <mxCell id="cu6VCZz03mRNxp5ROV86-114" value="productPrice" style="text;strokeColor=default;fillColor=none;align=left;verticalAlign=middle;spacingLeft=4;spacingRight=4;overflow=hidden;points=[[0,0.5],[1,0.5]];portConstraint=eastwest;rotatable=0;whiteSpace=wrap;html=1;" vertex="1" parent="cu6VCZz03mRNxp5ROV86-112">
          <mxGeometry y="60" width="140" height="30" as="geometry" />
        </mxCell>
        <mxCell id="cu6VCZz03mRNxp5ROV86-117" style="edgeStyle=orthogonalEdgeStyle;rounded=0;orthogonalLoop=1;jettySize=auto;html=1;entryX=0;entryY=0.5;entryDx=0;entryDy=0;endArrow=ERone;endFill=0;startArrow=ERone;startFill=0;exitX=0;exitY=0.5;exitDx=0;exitDy=0;" edge="1" parent="1" source="cu6VCZz03mRNxp5ROV86-94" target="cu6VCZz03mRNxp5ROV86-99">
          <mxGeometry relative="1" as="geometry">
            <Array as="points">
              <mxPoint x="-300" y="725" />
              <mxPoint x="-300" y="925" />
            </Array>
          </mxGeometry>
        </mxCell>
        <mxCell id="cu6VCZz03mRNxp5ROV86-118" style="edgeStyle=orthogonalEdgeStyle;rounded=0;orthogonalLoop=1;jettySize=auto;html=1;exitX=0;exitY=0.5;exitDx=0;exitDy=0;entryX=0;entryY=0.5;entryDx=0;entryDy=0;startArrow=ERone;startFill=0;endArrow=ERone;endFill=0;" edge="1" parent="1" source="cu6VCZz03mRNxp5ROV86-95" target="cu6VCZz03mRNxp5ROV86-116">
          <mxGeometry relative="1" as="geometry">
            <Array as="points">
              <mxPoint x="-270" y="755" />
              <mxPoint x="-270" y="955" />
            </Array>
          </mxGeometry>
        </mxCell>
        <mxCell id="cu6VCZz03mRNxp5ROV86-119" style="edgeStyle=orthogonalEdgeStyle;rounded=0;orthogonalLoop=1;jettySize=auto;html=1;exitX=1;exitY=0.5;exitDx=0;exitDy=0;entryX=0;entryY=0.5;entryDx=0;entryDy=0;startArrow=ERone;startFill=0;endArrow=ERone;endFill=0;" edge="1" parent="1" source="cu6VCZz03mRNxp5ROV86-93" target="cu6VCZz03mRNxp5ROV86-87">
          <mxGeometry relative="1" as="geometry" />
        </mxCell>
        <mxCell id="cu6VCZz03mRNxp5ROV86-120" value="&lt;b&gt;CF&lt;/b&gt; (Profile/Session)" style="swimlane;fontStyle=0;childLayout=stackLayout;horizontal=1;startSize=30;horizontalStack=0;resizeParent=1;resizeParentMax=0;resizeLast=0;collapsible=0;marginBottom=0;whiteSpace=wrap;html=1;" vertex="1" parent="1">
          <mxGeometry x="150" y="650" width="140" height="120" as="geometry" />
        </mxCell>
        <mxCell id="cu6VCZz03mRNxp5ROV86-121" value="&lt;div&gt;natg_selectedCnMC&lt;/div&gt;" style="text;strokeColor=default;fillColor=none;align=left;verticalAlign=middle;spacingLeft=4;spacingRight=4;overflow=hidden;points=[[0,0.5],[1,0.5]];portConstraint=eastwest;rotatable=0;whiteSpace=wrap;html=1;" vertex="1" parent="cu6VCZz03mRNxp5ROV86-120">
          <mxGeometry y="30" width="140" height="30" as="geometry" />
        </mxCell>
        <mxCell id="cu6VCZz03mRNxp5ROV86-122" value="&lt;div&gt;session.custom.&lt;/div&gt;&lt;div&gt;natg_selectedCnMC&lt;/div&gt;" style="text;strokeColor=default;fillColor=none;align=left;verticalAlign=middle;spacingLeft=4;spacingRight=4;overflow=hidden;points=[[0,0.5],[1,0.5]];portConstraint=eastwest;rotatable=0;whiteSpace=wrap;html=1;" vertex="1" parent="cu6VCZz03mRNxp5ROV86-120">
          <mxGeometry y="60" width="140" height="30" as="geometry" />
        </mxCell>
        <mxCell id="cu6VCZz03mRNxp5ROV86-137" value="natg_selectedCn" style="text;strokeColor=default;fillColor=none;align=left;verticalAlign=middle;spacingLeft=4;spacingRight=4;overflow=hidden;points=[[0,0.5],[1,0.5]];portConstraint=eastwest;rotatable=0;whiteSpace=wrap;html=1;" vertex="1" parent="cu6VCZz03mRNxp5ROV86-120">
          <mxGeometry y="90" width="140" height="30" as="geometry" />
        </mxCell>
        <mxCell id="cu6VCZz03mRNxp5ROV86-124" style="edgeStyle=orthogonalEdgeStyle;rounded=0;orthogonalLoop=1;jettySize=auto;html=1;exitX=1;exitY=0.5;exitDx=0;exitDy=0;entryX=0;entryY=0.5;entryDx=0;entryDy=0;startArrow=ERone;startFill=0;endArrow=ERone;endFill=0;" edge="1" parent="1" source="cu6VCZz03mRNxp5ROV86-88" target="cu6VCZz03mRNxp5ROV86-122">
          <mxGeometry relative="1" as="geometry" />
        </mxCell>
        <mxCell id="cu6VCZz03mRNxp5ROV86-125" style="edgeStyle=orthogonalEdgeStyle;rounded=0;orthogonalLoop=1;jettySize=auto;html=1;exitX=1;exitY=0.5;exitDx=0;exitDy=0;startArrow=ERone;startFill=0;endArrow=ERone;endFill=0;" edge="1" parent="1" source="cu6VCZz03mRNxp5ROV86-87" target="cu6VCZz03mRNxp5ROV86-121">
          <mxGeometry relative="1" as="geometry" />
        </mxCell>
        <mxCell id="cu6VCZz03mRNxp5ROV86-128" style="edgeStyle=orthogonalEdgeStyle;rounded=0;orthogonalLoop=1;jettySize=auto;html=1;exitX=1;exitY=0.5;exitDx=0;exitDy=0;entryX=0;entryY=0.25;entryDx=0;entryDy=0;startArrow=ERone;startFill=0;endArrow=ERoneToMany;endFill=0;" edge="1" parent="1" source="cu6VCZz03mRNxp5ROV86-98" target="cu6VCZz03mRNxp5ROV86-104">
          <mxGeometry relative="1" as="geometry" />
        </mxCell>
        <mxCell id="cu6VCZz03mRNxp5ROV86-129" style="edgeStyle=orthogonalEdgeStyle;rounded=0;orthogonalLoop=1;jettySize=auto;html=1;exitX=1;exitY=0.5;exitDx=0;exitDy=0;entryX=1;entryY=0.3;entryDx=0;entryDy=0;entryPerimeter=0;startArrow=ERone;startFill=0;endArrow=ERone;endFill=0;" edge="1" parent="1" source="cu6VCZz03mRNxp5ROV86-101" target="cu6VCZz03mRNxp5ROV86-121">
          <mxGeometry relative="1" as="geometry" />
        </mxCell>
        <mxCell id="cu6VCZz03mRNxp5ROV86-136" style="edgeStyle=orthogonalEdgeStyle;rounded=0;orthogonalLoop=1;jettySize=auto;html=1;exitX=1;exitY=0.5;exitDx=0;exitDy=0;entryX=0;entryY=0.5;entryDx=0;entryDy=0;startArrow=ERone;startFill=0;endArrow=ERone;endFill=0;" edge="1" parent="1" source="cu6VCZz03mRNxp5ROV86-105" target="cu6VCZz03mRNxp5ROV86-113">
          <mxGeometry relative="1" as="geometry" />
        </mxCell>
        <mxCell id="cu6VCZz03mRNxp5ROV86-140" style="edgeStyle=orthogonalEdgeStyle;rounded=0;orthogonalLoop=1;jettySize=auto;html=1;exitX=1;exitY=0.5;exitDx=0;exitDy=0;entryX=1;entryY=0.5;entryDx=0;entryDy=0;startArrow=ERone;startFill=0;endArrow=ERone;endFill=0;" edge="1" parent="1" source="cu6VCZz03mRNxp5ROV86-122" target="cu6VCZz03mRNxp5ROV86-139">
          <mxGeometry relative="1" as="geometry">
            <Array as="points">
              <mxPoint x="330" y="725" />
              <mxPoint x="330" y="895" />
            </Array>
          </mxGeometry>
        </mxCell>
        <mxCell id="cu6VCZz03mRNxp5ROV86-142" style="edgeStyle=orthogonalEdgeStyle;rounded=0;orthogonalLoop=1;jettySize=auto;html=1;exitX=1;exitY=0.5;exitDx=0;exitDy=0;entryX=0;entryY=0.5;entryDx=0;entryDy=0;startArrow=ERoneToMany;startFill=0;endArrow=ERone;endFill=0;" edge="1" parent="1" source="cu6VCZz03mRNxp5ROV86-114" target="cu6VCZz03mRNxp5ROV86-109">
          <mxGeometry relative="1" as="geometry" />
        </mxCell>
      </root>
    </mxGraphModel>
  </diagram>
</mxfile>
